<svg width="30" height="26" viewBox="0 0 30 26" fill="none" xmlns="http://www.w3.org/2000/svg">
<path d="M15 0C10.17 0 3.90099 1.21019 3.90099 1.21019L3.88522 1.22822C1.68538 1.58004 0 3.47034 0 5.76923V12.6923V12.6946V19.6154V19.6176C0.00214668 20.7156 0.395619 21.7768 1.10977 22.6107C1.82391 23.4446 2.81196 23.9967 3.89648 24.1677L3.90099 24.1744C3.90099 24.1744 10.17 25.3869 15 25.3869C19.83 25.3869 26.099 24.1744 26.099 24.1744L26.1013 24.1722C27.187 24.0015 28.1761 23.449 28.8908 22.6141C29.6055 21.7792 29.9988 20.7167 30 19.6176V19.6154V12.6946V12.6923V5.76923C29.9984 4.67092 29.6052 3.60918 28.891 2.77478C28.1768 1.94038 27.1884 1.38802 26.1035 1.21695L26.099 1.21019C26.099 1.21019 19.83 0 15 0ZM11.5385 7.38281L20.7692 12.6923L11.5385 18.0018V7.38281Z" fill="url(#paint0_linear_19_1059)"/>
<defs>
<linearGradient id="paint0_linear_19_1059" x1="15" y1="0" x2="15" y2="25.3869" gradientUnits="userSpaceOnUse">
<stop stop-color="#1D1B20"/>
<stop offset="0.5" stop-color="#B02C28"/>
<stop offset="0.75" stop-color="#D7342C"/>
<stop offset="1" stop-color="#FF3B30"/>
</linearGradient>
</defs>
</svg>
