<svg width="210" height="124" viewBox="0 0 210 124" fill="none" xmlns="http://www.w3.org/2000/svg">
<path d="M22.6069 47.8572L104.75 14.5239L189.524 47.8572V80L104.75 110.952L22.6069 80V47.8572Z" stroke="black" stroke-width="2.68731"/>
<path d="M5 44.5062L103.424 5L205 44.5062V82.6014L103.424 119.286L5 82.6014V44.5062Z" stroke="url(#paint0_linear_35_197)" stroke-width="8.06193"/>
<path d="M75.7603 58.0493L72.0613 58.8594C71.6096 57.8433 71.022 56.9924 70.2988 56.3068C69.5854 55.6189 68.7811 55.0865 67.8857 54.7094C66.9981 54.3202 66.0565 54.0888 65.0608 54.015C64.0652 53.9413 63.0602 54.0155 62.046 54.2376C60.1965 54.6426 58.6233 55.4768 57.3265 56.7403C56.0397 58.0017 55.153 59.6391 54.6665 61.6525C54.1899 63.6638 54.2413 65.992 54.8205 68.6369C55.3997 71.2819 56.326 73.4185 57.5995 75.0465C58.883 76.6724 60.3728 77.7894 62.0691 78.3975C63.7752 79.0034 65.5531 79.1038 67.4026 78.6988C68.4168 78.4767 69.3608 78.1241 70.2345 77.641C71.1082 77.1579 71.8681 76.559 72.514 75.8445C73.1676 75.1178 73.6747 74.293 74.0353 73.3699C74.4037 72.4348 74.5818 71.4163 74.5697 70.3144L78.2688 69.5043C78.3322 71.1264 78.131 72.6346 77.6652 74.0287C77.1994 75.4228 76.5143 76.6722 75.6099 77.7768C74.7034 78.8715 73.618 79.7917 72.3537 80.5375C71.0994 81.2811 69.7016 81.8216 68.1603 82.1592C65.5551 82.7297 63.0989 82.6006 60.7917 81.772C58.4845 80.9435 56.4922 79.4832 54.815 77.3913C53.1377 75.2994 51.9463 72.6426 51.2408 69.4208C50.5353 66.1991 50.5073 63.2875 51.1568 60.6861C51.8063 58.0846 53.006 55.9254 54.7557 54.2084C56.5055 52.4915 58.683 51.3477 61.2882 50.7772C62.8295 50.4397 64.3253 50.3466 65.7756 50.4979C67.2358 50.6471 68.6076 51.0345 69.8908 51.66C71.1719 52.2756 72.3153 53.1194 73.3211 54.1913C74.3248 55.2532 75.1379 56.5392 75.7603 58.0493Z" fill="black"/>
<path d="M75.7603 58.0493L76.3352 60.6744L79.4664 59.9888L78.2448 57.0252L75.7603 58.0493ZM72.0613 58.8594L69.6058 59.9511L70.4959 61.9531L72.6362 61.4845L72.0613 58.8594ZM70.2988 56.3068L68.4334 58.2412L68.4416 58.2491L68.4499 58.257L70.2988 56.3068ZM67.8857 54.7094L66.8066 57.1705L66.8246 57.1784L66.8428 57.1861L67.8857 54.7094ZM65.0608 54.015L64.8624 56.695L65.0608 54.015ZM57.3265 56.7403L55.4512 54.8156L55.4455 54.8212L57.3265 56.7403ZM54.6665 61.6525L52.0543 61.0214L52.0516 61.0329L54.6665 61.6525ZM57.5995 75.0465L55.4829 76.7023L55.4902 76.7116L57.5995 75.0465ZM62.0691 78.3975L61.1622 80.9271L61.1698 80.9298L62.0691 78.3975ZM70.2345 77.641L68.9342 75.2892L68.9342 75.2892L70.2345 77.641ZM72.514 75.8445L74.5075 77.6465L74.5119 77.6417L72.514 75.8445ZM74.0353 73.3699L71.535 72.3851L71.5322 72.3921L74.0353 73.3699ZM74.5697 70.3144L73.9949 67.6892L71.8587 68.157L71.8826 70.3437L74.5697 70.3144ZM78.2688 69.5043L80.954 69.3993L80.8286 66.1928L77.6939 66.8792L78.2688 69.5043ZM77.6652 74.0287L75.1164 73.1771L75.1164 73.1771L77.6652 74.0287ZM75.6099 77.7768L77.6797 79.4908L77.6845 79.485L77.6893 79.4792L75.6099 77.7768ZM72.3537 80.5375L70.9884 78.2229L70.9833 78.2259L72.3537 80.5375ZM60.7917 81.772L59.8834 84.3012L60.7917 81.772ZM54.815 77.3913L56.9116 75.7103L56.9116 75.7103L54.815 77.3913ZM65.7756 50.4979L65.4967 53.1708L65.5025 53.1713L65.7756 50.4979ZM69.8908 51.66L68.7132 54.0756L68.72 54.0789L68.7268 54.0822L69.8908 51.66ZM73.3211 54.1913L71.3615 56.0302L71.3681 56.0371L73.3211 54.1913ZM75.1855 55.4242L71.4864 56.2342L72.6362 61.4845L76.3352 60.6744L75.1855 55.4242ZM74.5168 57.7676C73.938 56.4656 73.1558 55.3123 72.1476 54.3565L68.4499 58.257C68.8883 58.6726 69.2811 59.2209 69.6058 59.9511L74.5168 57.7676ZM72.1641 54.3723C71.2173 53.4593 70.1354 52.7409 68.9287 52.2328L66.8428 57.1861C67.4268 57.432 67.9536 57.7785 68.4334 58.2412L72.1641 54.3723ZM68.9648 52.2483C67.7898 51.7331 66.5495 51.4306 65.2593 51.3351L64.8624 56.695C65.5635 56.7469 66.2065 56.9074 66.8066 57.1705L68.9648 52.2483ZM65.2593 51.3351C63.9944 51.2414 62.7289 51.337 61.4711 51.6125L62.6208 56.8627C63.3915 56.6939 64.136 56.6412 64.8624 56.695L65.2593 51.3351ZM61.4711 51.6125C59.1547 52.1197 57.1244 53.1853 55.4512 54.8156L59.2019 58.6651C60.1222 57.7684 61.2382 57.1655 62.6208 56.8627L61.4711 51.6125ZM55.4455 54.8212C53.7478 56.4851 52.641 58.5933 52.0544 61.0214L57.2786 62.2837C57.665 60.6848 58.3315 59.5182 59.2076 58.6595L55.4455 54.8212ZM52.0516 61.0329C51.4579 63.5386 51.5556 66.2901 52.1954 69.2118L57.4456 68.0621C56.927 65.6939 56.922 63.7891 57.2814 62.2721L52.0516 61.0329ZM52.1954 69.2118C52.8352 72.1335 53.8964 74.674 55.4829 76.7022L59.7162 73.3908C58.7557 72.1629 57.9642 70.4303 57.4456 68.0621L52.1954 69.2118ZM55.4902 76.7116C57.038 78.6722 58.9246 80.125 61.1622 80.9271L62.9759 75.8678C61.8211 75.4538 60.728 74.6726 59.7089 73.3815L55.4902 76.7116ZM61.1698 80.9298C63.3712 81.7116 65.661 81.8311 67.9774 81.3239L66.8277 76.0737C65.4451 76.3765 64.1793 76.2951 62.9684 75.8651L61.1698 80.9298ZM67.9774 81.3239C69.2352 81.0485 70.4248 80.6065 71.5349 79.9927L68.9342 75.2892C68.2968 75.6417 67.5984 75.9049 66.8277 76.0737L67.9774 81.3239ZM71.5349 79.9927C72.6589 79.3713 73.6553 78.5893 74.5075 77.6465L70.5204 74.0425C70.0808 74.5288 69.5576 74.9445 68.9342 75.2892L71.5349 79.9927ZM74.5119 77.6417C75.3849 76.6711 76.0618 75.5678 76.5384 74.3478L71.5322 72.3921C71.2877 73.0181 70.9503 73.5645 70.516 74.0473L74.5119 77.6417ZM76.5356 74.3548C77.0429 73.067 77.2724 71.7003 77.2569 70.285L71.8826 70.3437C71.8912 71.1323 71.7644 71.8026 71.535 72.3851L76.5356 74.3548ZM75.1446 72.9395L78.8436 72.1294L77.6939 66.8792L73.9949 67.6892L75.1446 72.9395ZM75.5835 69.6094C75.6356 70.9408 75.4691 72.1215 75.1164 73.1771L80.214 74.8803C80.7929 73.1476 81.0288 71.3121 80.954 69.3993L75.5835 69.6094ZM75.1164 73.1771C74.751 74.2708 74.2219 75.2301 73.5306 76.0745L77.6893 79.4792C78.8067 78.1144 79.6478 76.5749 80.214 74.8803L75.1164 73.1771ZM73.5402 76.0628C72.8384 76.9102 71.9938 77.6298 70.9884 78.2229L73.7191 82.8521C75.2422 81.9536 76.5684 80.8328 77.6797 79.4908L73.5402 76.0628ZM70.9833 78.2259C69.9952 78.8117 68.8695 79.2529 67.5855 79.5341L68.7352 84.7843C70.5337 84.3904 72.2036 83.7505 73.7241 82.8491L70.9833 78.2259ZM67.5855 79.5341C65.4288 80.0063 63.49 79.8857 61.7 79.2429L59.8834 84.3012C62.7077 85.3155 65.6814 85.453 68.7352 84.7843L67.5855 79.5341ZM61.7 79.2429C59.9028 78.5975 58.3087 77.4528 56.9116 75.7103L52.7183 79.0723C54.6758 81.5137 57.0661 83.2894 59.8834 84.3012L61.7 79.2429ZM56.9116 75.7103C55.5461 74.0072 54.5028 71.7545 53.8659 68.846L48.6157 69.9957C49.3898 73.5306 50.7293 76.5915 52.7183 79.0723L56.9116 75.7103ZM53.8659 68.846C53.229 65.9375 53.2353 63.4549 53.7641 61.3371L48.5495 60.0351C47.7793 63.1201 47.8416 66.4608 48.6157 69.9957L53.8659 68.846ZM53.7641 61.3371C54.3051 59.1701 55.275 57.4639 56.6379 56.1265L52.8736 52.2903C50.737 54.3869 49.3075 56.9991 48.5495 60.0351L53.7641 61.3371ZM56.6379 56.1265C57.9955 54.7944 59.7064 53.8746 61.8631 53.4023L60.7134 48.1521C57.6596 48.8208 55.0155 50.1885 52.8736 52.2903L56.6379 56.1265ZM61.8631 53.4023C63.1471 53.1212 64.3541 53.0515 65.4967 53.1707L66.0545 47.8251C64.2964 47.6417 62.5119 47.7583 60.7134 48.1521L61.8631 53.4023ZM65.5025 53.1713C66.6575 53.2893 67.722 53.5924 68.7132 54.0756L71.0684 49.2445C69.4931 48.4765 67.8142 48.0049 66.0486 47.8245L65.5025 53.1713ZM68.7268 54.0822C69.6987 54.5492 70.5747 55.1917 71.3615 56.0302L75.2808 52.3524C74.0559 51.0471 72.645 50.0021 71.0548 49.2379L68.7268 54.0822ZM71.3681 56.0371C72.1207 56.8335 72.764 57.8318 73.2758 59.0734L78.2448 57.0252C77.5117 55.2466 76.5289 53.6729 75.2742 52.3454L71.3681 56.0371Z" fill="url(#paint1_linear_35_197)"/>
<path d="M118.276 46.6819V77.9524H114.611L97.5713 53.4002H97.266V77.9524H93.4793V46.6819H97.1438L114.245 71.2952H114.55V46.6819H118.276Z" fill="black"/>
<path d="M118.276 46.6819H120.963V43.9946H118.276V46.6819ZM118.276 77.9524V80.6397H120.963V77.9524H118.276ZM114.611 77.9524L112.404 79.4846L113.205 80.6397H114.611V77.9524ZM97.5713 53.4002L99.779 51.8679L98.9774 50.7129H97.5713V53.4002ZM97.266 53.4002V50.7129H94.5786V53.4002H97.266ZM97.266 77.9524V80.6397H99.9533V77.9524H97.266ZM93.4793 77.9524H90.792V80.6397H93.4793V77.9524ZM93.4793 46.6819V43.9946H90.792V46.6819H93.4793ZM97.1438 46.6819L99.3507 45.1485L98.549 43.9946H97.1438V46.6819ZM114.245 71.2952L112.038 72.8285L112.84 73.9825H114.245V71.2952ZM114.55 71.2952V73.9825H117.238V71.2952H114.55ZM114.55 46.6819V43.9946H111.863V46.6819H114.55ZM115.589 46.6819V77.9524H120.963V46.6819H115.589ZM118.276 75.2651H114.611V80.6397H118.276V75.2651ZM116.819 76.4202L99.779 51.8679L95.3636 54.9324L112.404 79.4846L116.819 76.4202ZM97.5713 50.7129H97.266V56.0875H97.5713V50.7129ZM94.5786 53.4002V77.9524H99.9533V53.4002H94.5786ZM97.266 75.2651H93.4793V80.6397H97.266V75.2651ZM96.1666 77.9524V46.6819H90.792V77.9524H96.1666ZM93.4793 49.3692H97.1438V43.9946H93.4793V49.3692ZM94.9369 48.2152L112.038 72.8285L116.452 69.7619L99.3507 45.1485L94.9369 48.2152ZM114.245 73.9825H114.55V68.6079H114.245V73.9825ZM117.238 71.2952V46.6819H111.863V71.2952H117.238ZM114.55 49.3692H118.276V43.9946H114.55V49.3692Z" fill="url(#paint2_linear_35_197)"/>
<path d="M163.226 64.3232L159.527 63.5131C159.542 62.4013 159.363 61.3827 158.993 60.4575C158.632 59.5345 158.124 58.7147 157.468 57.9979C156.825 57.2734 156.066 56.6696 155.192 56.1865C154.318 55.7034 153.374 55.3508 152.36 55.1287C150.511 54.7237 148.733 54.8241 147.027 55.43C145.33 56.0381 143.841 57.1551 142.557 58.781C141.284 60.409 140.357 62.5455 139.778 65.1905C139.199 67.8355 139.148 70.1637 139.624 72.175C140.111 74.1884 140.997 75.8258 142.284 77.0871C143.581 78.3506 145.154 79.1849 147.004 79.5899C148.018 79.812 149.023 79.8862 150.018 79.8124C151.014 79.7387 151.955 79.5122 152.84 79.133C153.738 78.746 154.543 78.2086 155.256 77.5207C155.982 76.8251 156.569 75.9743 157.019 74.9681L160.718 75.7782C160.098 77.2783 159.285 78.5644 158.279 79.6362C157.273 80.7081 156.128 81.5568 154.845 82.1824C153.564 82.798 152.193 83.1804 150.733 83.3295C149.283 83.4809 147.787 83.3878 146.246 83.0503C143.641 82.4798 141.463 81.336 139.713 79.619C137.964 77.9021 136.764 75.7429 136.114 73.1414C135.465 70.54 135.493 67.6284 136.198 64.4067C136.904 61.1849 138.095 58.5281 139.773 56.4362C141.45 54.3443 143.442 52.884 145.749 52.0554C148.057 51.2269 150.513 51.0978 153.118 51.6683C154.659 52.0058 156.057 52.5464 157.311 53.29C158.576 54.0358 159.66 54.961 160.564 56.0656C161.471 57.1602 162.157 58.4046 162.623 59.7988C163.091 61.183 163.292 62.6911 163.226 64.3232Z" fill="black"/>
<path d="M163.226 64.3232L162.652 66.9483L165.783 67.6339L165.912 64.4311L163.226 64.3232ZM159.527 63.5131L156.84 63.4787L156.812 65.6696L158.953 66.1382L159.527 63.5131ZM158.993 60.4575L156.49 61.4354L156.494 61.446L156.498 61.4566L158.993 60.4575ZM157.468 57.9979L155.459 59.7828L155.472 59.7975L155.486 59.812L157.468 57.9979ZM155.192 56.1865L153.892 58.5383L155.192 56.1865ZM147.027 55.43L146.127 52.8977L146.12 52.9004L147.027 55.43ZM142.557 58.781L140.448 57.1159L140.441 57.1253L142.557 58.781ZM139.624 72.175L137.009 72.7946L137.012 72.8061L139.624 72.175ZM142.284 77.0871L140.403 79.0063L140.409 79.0119L142.284 77.0871ZM150.018 79.8124L149.82 77.1325L149.82 77.1325L150.018 79.8124ZM152.84 79.133L153.898 81.6033L153.904 81.6007L152.84 79.133ZM155.256 77.5207L153.396 75.581L153.391 75.5863L155.256 77.5207ZM157.019 74.9681L157.594 72.343L155.458 71.8752L154.565 73.8718L157.019 74.9681ZM160.718 75.7782L163.201 76.805L164.427 73.8395L161.293 73.1531L160.718 75.7782ZM158.279 79.6362L156.319 77.7973L156.319 77.7973L158.279 79.6362ZM154.845 82.1824L156.009 84.6045L156.016 84.6013L156.023 84.5979L154.845 82.1824ZM150.733 83.3295L150.46 80.6561L150.454 80.6567L150.733 83.3295ZM139.713 79.619L137.831 81.5372L139.713 79.619ZM136.114 73.1414L138.722 72.4904L138.722 72.4904L136.114 73.1414ZM157.311 53.29L155.941 55.6016L155.946 55.6046L157.311 53.29ZM160.564 56.0656L158.485 57.7679L158.49 57.7738L158.495 57.7796L160.564 56.0656ZM162.623 59.7988L160.074 60.6504L160.077 60.6595L162.623 59.7988ZM163.801 61.698L160.102 60.888L158.953 66.1382L162.652 66.9483L163.801 61.698ZM162.214 63.5475C162.233 62.1228 162.004 60.7481 161.488 59.4585L156.498 61.4566C156.723 62.0174 156.851 62.6797 156.84 63.4787L162.214 63.5475ZM161.496 59.4797C161.017 58.2545 160.335 57.1498 159.451 56.1838L155.486 59.812C155.913 60.2795 156.247 60.8145 156.49 61.4354L161.496 59.4797ZM159.477 56.213C158.625 55.2539 157.625 54.4608 156.492 53.8348L153.892 58.5383C154.507 58.8785 155.024 59.2929 155.459 59.7828L159.477 56.213ZM156.492 53.8348C155.382 53.221 154.193 52.779 152.935 52.5036L151.785 57.7538C152.556 57.9226 153.254 58.1858 153.892 58.5383L156.492 53.8348ZM152.935 52.5036C150.619 51.9963 148.329 52.1159 146.127 52.8977L147.926 57.9624C149.137 57.5324 150.403 57.451 151.785 57.7538L152.935 52.5036ZM146.12 52.9004C143.882 53.7025 141.996 55.1552 140.448 57.1159L144.666 60.446C145.686 59.1549 146.779 58.3737 147.934 57.9597L146.12 52.9004ZM140.441 57.1253C138.854 59.1535 137.793 61.6939 137.153 64.6157L142.403 65.7654C142.922 63.3972 143.713 61.6646 144.674 60.4367L140.441 57.1253ZM137.153 64.6157C136.513 67.5374 136.416 70.2889 137.009 72.7945L142.239 71.5554C141.88 70.0384 141.885 68.1336 142.403 65.7654L137.153 64.6157ZM137.012 72.8061C137.599 75.2342 138.705 77.3424 140.403 79.0063L144.165 75.168C143.289 74.3093 142.623 73.1427 142.236 71.5438L137.012 72.8061ZM140.409 79.0119C142.082 80.6422 144.112 81.7078 146.429 82.215L147.578 76.9648C146.196 76.662 145.08 76.0591 144.159 75.1624L140.409 79.0119ZM146.429 82.215C147.687 82.4904 148.952 82.5861 150.217 82.4924L149.82 77.1325C149.094 77.1863 148.349 77.1336 147.578 76.9648L146.429 82.215ZM150.217 82.4924C151.498 82.3976 152.73 82.1036 153.898 81.6033L151.782 76.6627C151.18 76.9208 150.53 77.0799 149.82 77.1325L150.217 82.4924ZM153.904 81.6007C155.103 81.0838 156.179 80.3644 157.122 79.4552L153.391 75.5863C152.907 76.0528 152.372 76.4082 151.776 76.6653L153.904 81.6007ZM157.116 79.4604C158.115 78.5024 158.895 77.3567 159.472 76.0645L154.565 73.8718C154.244 74.5918 153.848 75.1478 153.396 75.581L157.116 79.4604ZM156.444 77.5932L160.143 78.4033L161.293 73.1531L157.594 72.343L156.444 77.5932ZM158.235 74.7513C157.725 75.9827 157.081 76.9858 156.319 77.7973L160.238 81.4751C161.488 80.1429 162.47 78.574 163.201 76.805L158.235 74.7513ZM156.319 77.7973C155.53 78.6382 154.649 79.2886 153.668 79.7668L156.023 84.5979C157.608 83.825 159.016 82.7779 160.238 81.4751L156.319 77.7973ZM153.681 79.7602C152.689 80.2368 151.621 80.5375 150.46 80.6561L151.006 86.0029C152.766 85.8233 154.439 85.3592 156.009 84.6045L153.681 79.7602ZM150.454 80.6567C149.312 80.776 148.105 80.7063 146.821 80.4252L145.671 85.6754C147.47 86.0692 149.254 86.1858 151.012 86.0023L150.454 80.6567ZM146.821 80.4252C144.664 79.9529 142.953 79.0331 141.596 77.7009L137.831 81.5372C139.973 83.639 142.617 85.0067 145.671 85.6754L146.821 80.4252ZM141.596 77.7009C140.233 76.3636 139.263 74.6574 138.722 72.4904L133.507 73.7924C134.265 76.8283 135.695 79.4406 137.831 81.5372L141.596 77.7009ZM138.722 72.4904C138.193 70.3726 138.187 67.89 138.824 64.9815L133.573 63.8318C132.799 67.3667 132.737 70.7073 133.507 73.7924L138.722 72.4904ZM138.824 64.9815C139.46 62.073 140.504 59.8203 141.869 58.1172L137.676 54.7552C135.687 57.2359 134.347 60.2969 133.573 63.8318L138.824 64.9815ZM141.869 58.1172C143.266 56.3747 144.86 55.23 146.658 54.5846L144.841 49.5263C142.024 50.538 139.633 52.3138 137.676 54.7552L141.869 58.1172ZM146.658 54.5846C148.448 53.9418 150.386 53.8212 152.543 54.2934L153.693 49.0432C150.639 48.3745 147.665 48.512 144.841 49.5263L146.658 54.5846ZM152.543 54.2934C153.827 54.5746 154.953 55.0158 155.941 55.6016L158.682 50.9784C157.161 50.077 155.491 49.4371 153.693 49.0432L152.543 54.2934ZM155.946 55.6046C156.946 56.1945 157.786 56.9147 158.485 57.7679L162.644 54.3632C161.533 53.0072 160.205 51.8771 158.677 50.9754L155.946 55.6046ZM158.495 57.7796C159.182 58.6101 159.71 59.5599 160.074 60.6504L165.172 58.9472C164.604 57.2494 163.759 55.7104 162.634 54.3516L158.495 57.7796ZM160.077 60.6595C160.428 61.6975 160.595 62.8733 160.541 64.2152L165.912 64.4311C165.989 62.5089 165.754 60.6685 165.169 58.9381L160.077 60.6595Z" fill="url(#paint3_linear_35_197)"/>
<defs>
<linearGradient id="paint0_linear_35_197" x1="105" y1="5" x2="105" y2="119.286" gradientUnits="userSpaceOnUse">
<stop stop-color="#1D1B20"/>
<stop offset="0.5" stop-color="#B02C28"/>
<stop offset="0.75" stop-color="#D7342C"/>
<stop offset="1" stop-color="#FF3B30"/>
</linearGradient>
<linearGradient id="paint1_linear_35_197" x1="56.9431" y1="41.1827" x2="66.7985" y2="86.1881" gradientUnits="userSpaceOnUse">
<stop stop-color="#1D1B20"/>
<stop offset="0.5" stop-color="#B02C28"/>
<stop offset="0.75" stop-color="#D7342C"/>
<stop offset="1" stop-color="#FF3B30"/>
</linearGradient>
<linearGradient id="paint2_linear_35_197" x1="104.312" y1="35.9524" x2="104.312" y2="82.0243" gradientUnits="userSpaceOnUse">
<stop stop-color="#1D1B20"/>
<stop offset="0.5" stop-color="#B02C28"/>
<stop offset="0.75" stop-color="#D7342C"/>
<stop offset="1" stop-color="#FF3B30"/>
</linearGradient>
<linearGradient id="paint3_linear_35_197" x1="153.18" y1="41.1359" x2="143.325" y2="86.1414" gradientUnits="userSpaceOnUse">
<stop stop-color="#1D1B20"/>
<stop offset="0.5" stop-color="#B02C28"/>
<stop offset="0.75" stop-color="#D7342C"/>
<stop offset="1" stop-color="#FF3B30"/>
</linearGradient>
</defs>
</svg>
