<svg width="88" height="52" viewBox="0 0 88 52" fill="none" xmlns="http://www.w3.org/2000/svg">
<path d="M9.3949 20L43.8949 6L79.5 20V33.5L43.8949 46.5L9.3949 33.5V20Z" stroke="black"/>
<path d="M2 18.5926L43.3379 2L86 18.5926V34.5926L43.3379 50L2 34.5926V18.5926Z" stroke="url(#paint0_linear_56_275)" stroke-width="3"/>
<path d="M30.0208 23.0039L28.6443 23.3053C28.4762 22.9272 28.2576 22.6106 27.9884 22.3555C27.723 22.0995 27.4237 21.9014 27.0905 21.7611C26.7602 21.6162 26.4098 21.5301 26.0393 21.5027C25.6688 21.4752 25.2948 21.5028 24.9174 21.5855C24.2292 21.7362 23.6438 22.0466 23.1612 22.5168C22.6823 22.9862 22.3524 23.5955 22.1713 24.3447C21.994 25.0932 22.0131 25.9595 22.2286 26.9438C22.4442 27.928 22.7889 28.7231 23.2628 29.3289C23.7404 29.9339 24.2948 30.3496 24.926 30.5758C25.5609 30.8013 26.2224 30.8387 26.9107 30.688C27.2881 30.6053 27.6394 30.4741 27.9645 30.2943C28.2896 30.1146 28.5724 29.8917 28.8127 29.6258C29.056 29.3554 29.2447 29.0485 29.3789 28.705C29.5159 28.357 29.5822 27.978 29.5777 27.568L30.9542 27.2665C30.9778 27.8701 30.9029 28.4314 30.7296 28.9501C30.5563 29.4689 30.3013 29.9338 29.9648 30.3449C29.6275 30.7522 29.2236 31.0947 28.7531 31.3722C28.2863 31.6489 27.7662 31.85 27.1927 31.9756C26.2232 32.1879 25.3092 32.1399 24.4506 31.8316C23.5921 31.5233 22.8507 30.9799 22.2266 30.2014C21.6024 29.423 21.1591 28.4343 20.8966 27.2355C20.634 26.0366 20.6236 24.9531 20.8653 23.9851C21.107 23.017 21.5534 22.2136 22.2046 21.5746C22.8557 20.9357 23.666 20.5101 24.6354 20.2978C25.2089 20.1722 25.7656 20.1376 26.3052 20.1939C26.8486 20.2494 27.3591 20.3935 27.8366 20.6263C28.3133 20.8554 28.7388 21.1694 29.1131 21.5682C29.4866 21.9634 29.7891 22.442 30.0208 23.0039Z" fill="black"/>
<path d="M30.0208 23.0039L30.2347 23.9808L31.3999 23.7256L30.9453 22.6228L30.0208 23.0039ZM28.6443 23.3053L27.7305 23.7116L28.0618 24.4566L28.8582 24.2822L28.6443 23.3053ZM27.9884 22.3555L27.2943 23.0753L27.3004 23.0812L27.9884 22.3555ZM27.0905 21.7611L26.6889 22.6769L26.6956 22.6798L26.7024 22.6827L27.0905 21.7611ZM26.0393 21.5027L25.9654 22.4999L26.0393 21.5027ZM23.1612 22.5168L22.4633 21.8006L22.4612 21.8026L23.1612 22.5168ZM22.1713 24.3447L21.1993 24.1099L21.1983 24.1142L22.1713 24.3447ZM23.2628 29.3289L22.4751 29.945L22.4779 29.9485L23.2628 29.3289ZM24.926 30.5758L24.5885 31.5172L24.5913 31.5182L24.926 30.5758ZM27.9645 30.2943L27.4806 29.4192L27.9645 30.2943ZM28.8127 29.6258L29.5546 30.2964L29.5562 30.2946L28.8127 29.6258ZM29.3789 28.705L28.4484 28.3385L28.4474 28.3411L29.3789 28.705ZM29.5777 27.568L29.3638 26.5911L28.5689 26.7652L28.5778 27.5789L29.5777 27.568ZM30.9542 27.2665L31.9534 27.2274L31.9068 26.0342L30.7403 26.2897L30.9542 27.2665ZM30.7296 28.9501L29.7812 28.6332L29.7811 28.6332L30.7296 28.9501ZM29.9648 30.3449L30.735 30.9827L30.7386 30.9784L29.9648 30.3449ZM28.7531 31.3722L28.245 30.5109L28.2432 30.512L28.7531 31.3722ZM24.4506 31.8316L24.1127 32.7727L24.4506 31.8316ZM22.2266 30.2014L23.0068 29.5759L22.2266 30.2014ZM20.8653 23.9851L19.8951 23.7429L20.8653 23.9851ZM26.3052 20.1939L26.2015 21.1885L26.2036 21.1887L26.3052 20.1939ZM27.8366 20.6263L27.3984 21.5252L27.4035 21.5276L27.8366 20.6263ZM29.1131 21.5682L28.3839 22.2525L28.3863 22.2551L29.1131 21.5682ZM29.8068 22.027L28.4304 22.3285L28.8582 24.2822L30.2347 23.9808L29.8068 22.027ZM29.558 22.8991C29.3426 22.4146 29.0516 21.9854 28.6764 21.6297L27.3004 23.0812C27.4636 23.2358 27.6097 23.4399 27.7305 23.7116L29.558 22.8991ZM28.6825 21.6356C28.3302 21.2959 27.9276 21.0285 27.4786 20.8394L26.7024 22.6827C26.9197 22.7742 27.1157 22.9031 27.2943 23.0753L28.6825 21.6356ZM27.492 20.8452C27.0548 20.6535 26.5932 20.5409 26.1131 20.5054L25.9654 22.4999C26.2263 22.5193 26.4656 22.579 26.6889 22.6769L27.492 20.8452ZM26.1131 20.5054C25.6424 20.4705 25.1715 20.5061 24.7035 20.6086L25.1313 22.5623C25.4181 22.4995 25.6951 22.4799 25.9654 22.4999L26.1131 20.5054ZM24.7035 20.6086C23.8415 20.7974 23.086 21.1939 22.4633 21.8006L23.859 23.233C24.2015 22.8994 24.6168 22.675 25.1313 22.5623L24.7035 20.6086ZM22.4612 21.8026C21.8295 22.4218 21.4176 23.2063 21.1993 24.1099L23.1434 24.5796C23.2871 23.9846 23.5352 23.5505 23.8612 23.231L22.4612 21.8026ZM21.1983 24.1142C20.9774 25.0466 21.0137 26.0704 21.2518 27.1577L23.2055 26.7298C23.0125 25.8486 23.0107 25.1398 23.1444 24.5753L21.1983 24.1142ZM21.2518 27.1577C21.4899 28.2449 21.8848 29.1903 22.4751 29.945L24.0504 28.7128C23.693 28.2558 23.3985 27.6111 23.2055 26.7298L21.2518 27.1577ZM22.4779 29.9485C23.0538 30.6781 23.7559 31.2187 24.5885 31.5172L25.2634 29.6345C24.8337 29.4804 24.427 29.1897 24.0477 28.7093L22.4779 29.9485ZM24.5913 31.5182C25.4105 31.8091 26.2626 31.8536 27.1246 31.6648L26.6968 29.7111C26.1823 29.8238 25.7112 29.7935 25.2606 29.6335L24.5913 31.5182ZM27.1246 31.6648C27.5927 31.5623 28.0353 31.3979 28.4484 31.1695L27.4806 29.4192C27.2434 29.5504 26.9836 29.6483 26.6968 29.7111L27.1246 31.6648ZM28.4484 31.1695C28.8666 30.9382 29.2374 30.6472 29.5546 30.2964L28.0709 28.9553C27.9073 29.1362 27.7126 29.2909 27.4806 29.4192L28.4484 31.1695ZM29.5562 30.2946C29.8811 29.9334 30.1329 29.5229 30.3103 29.0689L28.4474 28.3411C28.3564 28.5741 28.2309 28.7774 28.0693 28.9571L29.5562 30.2946ZM30.3093 29.0715C30.498 28.5923 30.5834 28.0837 30.5777 27.557L28.5778 27.5789C28.581 27.8723 28.5338 28.1218 28.4484 28.3385L30.3093 29.0715ZM29.7916 28.5448L31.1681 28.2434L30.7403 26.2897L29.3638 26.5911L29.7916 28.5448ZM29.955 27.3056C29.9743 27.8011 29.9124 28.2404 29.7812 28.6332L31.6781 29.267C31.8935 28.6223 31.9813 27.9392 31.9534 27.2274L29.955 27.3056ZM29.7811 28.6332C29.6452 29.0402 29.4483 29.3972 29.191 29.7114L30.7386 30.9784C31.1544 30.4705 31.4674 29.8976 31.6781 29.267L29.7811 28.6332ZM29.1946 29.7071C28.9335 30.0224 28.6192 30.2902 28.245 30.5109L29.2612 32.2335C29.828 31.8992 30.3215 31.4821 30.735 30.9827L29.1946 29.7071ZM28.2432 30.512C27.8754 30.73 27.4565 30.8942 26.9787 30.9988L27.4066 32.9525C28.0758 32.8059 28.6972 32.5678 29.263 32.2324L28.2432 30.512ZM26.9787 30.9988C26.1762 31.1745 25.4548 31.1297 24.7886 30.8904L24.1127 32.7727C25.1636 33.1502 26.2702 33.2013 27.4066 32.9525L26.9787 30.9988ZM24.7886 30.8904C24.1199 30.6503 23.5267 30.2243 23.0068 29.5759L21.4464 30.827C22.1748 31.7354 23.0643 32.3962 24.1127 32.7727L24.7886 30.8904ZM23.0068 29.5759C22.4986 28.9421 22.1104 28.1039 21.8734 27.0215L19.9197 27.4494C20.2078 28.7648 20.7062 29.9038 21.4464 30.827L23.0068 29.5759ZM21.8734 27.0215C21.6364 25.9392 21.6388 25.0154 21.8355 24.2273L19.8951 23.7429C19.6085 24.8909 19.6317 26.134 19.9197 27.4494L21.8734 27.0215ZM21.8355 24.2273C22.0369 23.421 22.3978 22.7861 22.9049 22.2884L21.5042 20.8609C20.7091 21.641 20.1772 22.6131 19.8951 23.7429L21.8355 24.2273ZM22.9049 22.2884C23.4101 21.7927 24.0468 21.4504 24.8493 21.2747L24.4215 19.321C23.2851 19.5698 22.3012 20.0787 21.5042 20.8609L22.9049 22.2884ZM24.8493 21.2747C25.3271 21.17 25.7763 21.1441 26.2015 21.1885L26.409 19.1993C25.7548 19.131 25.0908 19.1744 24.4215 19.321L24.8493 21.2747ZM26.2036 21.1887C26.6334 21.2326 27.0296 21.3454 27.3984 21.5252L28.2748 19.7274C27.6886 19.4417 27.0639 19.2662 26.4069 19.1991L26.2036 21.1887ZM27.4035 21.5276C27.7651 21.7014 28.0911 21.9405 28.3839 22.2525L29.8423 20.884C29.3865 20.3982 28.8615 20.0094 28.2697 19.725L27.4035 21.5276ZM28.3863 22.2551C28.6664 22.5514 28.9058 22.9229 29.0962 23.385L30.9453 22.6228C30.6725 21.961 30.3068 21.3754 29.8399 20.8814L28.3863 22.2551Z" fill="url(#paint1_linear_56_275)"/>
<path d="M48.2073 18.3636V30H46.8437L40.5027 20.8636H40.3891V30H38.98V18.3636H40.3437L46.7073 27.5227H46.8209V18.3636H48.2073Z" fill="black"/>
<path d="M48.2073 18.3636H49.2073V17.3636H48.2073V18.3636ZM48.2073 30V31H49.2073V30H48.2073ZM46.8437 30L46.0221 30.5702L46.3204 31H46.8437V30ZM40.5027 20.8636L41.3243 20.2935L41.026 19.8636H40.5027V20.8636ZM40.3891 20.8636V19.8636H39.3891V20.8636H40.3891ZM40.3891 30V31H41.3891V30H40.3891ZM38.98 30H37.98V31H38.98V30ZM38.98 18.3636V17.3636H37.98V18.3636H38.98ZM40.3437 18.3636L41.1649 17.793L40.8665 17.3636H40.3437V18.3636ZM46.7073 27.5227L45.886 28.0933L46.1844 28.5227H46.7073V27.5227ZM46.8209 27.5227V28.5227H47.8209V27.5227H46.8209ZM46.8209 18.3636V17.3636H45.8209V18.3636H46.8209ZM47.2073 18.3636V30H49.2073V18.3636H47.2073ZM48.2073 29H46.8437V31H48.2073V29ZM47.6652 29.4298L41.3243 20.2935L39.6812 21.4338L46.0221 30.5702L47.6652 29.4298ZM40.5027 19.8636H40.3891V21.8636H40.5027V19.8636ZM39.3891 20.8636V30H41.3891V20.8636H39.3891ZM40.3891 29H38.98V31H40.3891V29ZM39.98 30V18.3636H37.98V30H39.98ZM38.98 19.3636H40.3437V17.3636H38.98V19.3636ZM39.5224 18.9342L45.886 28.0933L47.5285 26.9521L41.1649 17.793L39.5224 18.9342ZM46.7073 28.5227H46.8209V26.5227H46.7073V28.5227ZM47.8209 27.5227V18.3636H45.8209V27.5227H47.8209ZM46.8209 19.3636H48.2073V17.3636H46.8209V19.3636Z" fill="url(#paint2_linear_56_275)"/>
<path d="M67.4456 25.0458L66.0691 24.7444C66.0744 24.3306 66.0081 23.9516 65.8702 23.6073C65.7361 23.2639 65.5469 22.9588 65.3029 22.6921C65.0634 22.4225 64.781 22.1978 64.4559 22.018C64.1308 21.8382 63.7795 21.707 63.4021 21.6244C62.7138 21.4737 62.0523 21.511 61.4174 21.7365C60.7862 21.9628 60.2318 22.3784 59.7542 22.9835C59.2803 23.5893 58.9356 24.3843 58.72 25.3686C58.5045 26.3528 58.4854 27.2192 58.6627 27.9676C58.8438 28.7169 59.1737 29.3262 59.6526 29.7955C60.1351 30.2657 60.7205 30.5762 61.4088 30.7269C61.7862 30.8095 62.1602 30.8371 62.5307 30.8097C62.9012 30.7822 63.2512 30.698 63.5806 30.5568C63.9146 30.4128 64.2144 30.2129 64.4798 29.9569C64.7498 29.698 64.9684 29.3814 65.1357 29.007L66.5121 29.3084C66.2813 29.8667 65.9788 30.3452 65.6045 30.7441C65.2302 31.143 64.8043 31.4588 64.3268 31.6916C63.8501 31.9207 63.34 32.063 62.7966 32.1185C62.2569 32.1748 61.7003 32.1401 61.1268 32.0145C60.1573 31.8022 59.3471 31.3766 58.6959 30.7377C58.0448 30.0988 57.5984 29.2953 57.3567 28.3273C57.115 27.3592 57.1254 26.2757 57.3879 25.0769C57.6505 23.878 58.0938 22.8894 58.718 22.1109C59.3421 21.3325 60.0835 20.7891 60.942 20.4808C61.8006 20.1724 62.7146 20.1244 63.684 20.3367C64.2576 20.4623 64.7777 20.6635 65.2445 20.9402C65.7149 21.2177 66.1184 21.562 66.455 21.973C66.7923 22.3804 67.0476 22.8434 67.221 23.3622C67.3951 23.8773 67.47 24.4385 67.4456 25.0458Z" fill="black"/>
<path d="M67.4456 25.0458L67.2317 26.0227L68.3969 26.2778L68.4448 25.086L67.4456 25.0458ZM66.0691 24.7444L65.0692 24.7316L65.0588 25.5468L65.8552 25.7212L66.0691 24.7444ZM65.8702 23.6073L64.9388 23.9712L64.9419 23.9791L65.8702 23.6073ZM65.3029 22.6921L64.5553 23.3563L64.5602 23.3617L64.5651 23.3671L65.3029 22.6921ZM64.4559 22.018L63.972 22.8931L64.4559 22.018ZM61.4174 21.7365L61.0827 20.7942L61.0799 20.7952L61.4174 21.7365ZM59.7542 22.9835L58.9692 22.3638L58.9665 22.3673L59.7542 22.9835ZM58.6627 27.9676L57.6897 28.1982L57.6907 28.2025L58.6627 27.9676ZM59.6526 29.7955L58.9526 30.5097L58.9547 30.5118L59.6526 29.7955ZM62.5307 30.8097L62.4568 29.8124L62.5307 30.8097ZM63.5806 30.5568L63.9744 31.4761L63.9766 31.4751L63.5806 30.5568ZM64.4798 29.9569L63.7877 29.2351L63.7857 29.237L64.4798 29.9569ZM65.1357 29.007L65.3496 28.0302L64.5547 27.8561L64.2227 28.5991L65.1357 29.007ZM66.5121 29.3084L67.4363 29.6905L67.8925 28.587L66.7261 28.3316L66.5121 29.3084ZM65.6045 30.7441L64.8753 30.0598L64.8753 30.0598L65.6045 30.7441ZM64.3268 31.6916L64.7599 32.5929L64.765 32.5905L64.3268 31.6916ZM62.7966 32.1185L62.695 31.1236L62.6929 31.1239L62.7966 32.1185ZM58.6959 30.7377L57.9955 31.4515L58.6959 30.7377ZM57.3567 28.3273L58.3269 28.085L57.3567 28.3273ZM58.718 22.1109L57.9378 21.4854L58.718 22.1109ZM65.2445 20.9402L64.7345 21.8004L64.7364 21.8015L65.2445 20.9402ZM66.455 21.973L65.6812 22.6065L65.6848 22.6108L66.455 21.973ZM67.221 23.3622L66.2725 23.6791L66.2737 23.6825L67.221 23.3622ZM67.6595 24.069L66.283 23.7675L65.8552 25.7212L67.2317 26.0227L67.6595 24.069ZM67.069 24.7572C67.0758 24.227 66.9908 23.7155 66.7986 23.2356L64.9419 23.9791C65.0255 24.1878 65.073 24.4343 65.0692 24.7316L67.069 24.7572ZM66.8017 23.2435C66.6236 22.7876 66.3696 22.3765 66.0407 22.017L64.5651 23.3671C64.7243 23.5411 64.8485 23.7402 64.9388 23.9712L66.8017 23.2435ZM66.0505 22.0279C65.7333 21.671 65.3611 21.3758 64.9398 21.1429L63.972 22.8931C64.201 23.0197 64.3934 23.174 64.5553 23.3563L66.0505 22.0279ZM64.9398 21.1429C64.5267 20.9145 64.084 20.75 63.616 20.6475L63.1882 22.6012C63.4749 22.664 63.7348 22.762 63.972 22.8931L64.9398 21.1429ZM63.616 20.6475C62.754 20.4588 61.9019 20.5033 61.0827 20.7942L61.752 22.6789C62.2026 22.5188 62.6737 22.4886 63.1882 22.6012L63.616 20.6475ZM61.0799 20.7952C60.2472 21.0937 59.5452 21.6343 58.9693 22.3639L60.5391 23.6031C60.9183 23.1226 61.3251 22.8319 61.7548 22.6779L61.0799 20.7952ZM58.9665 22.3673C58.3761 23.1221 57.9813 24.0674 57.7432 25.1547L59.6969 25.5825C59.8899 24.7012 60.1844 24.0565 60.5418 23.5996L58.9665 22.3673ZM57.7432 25.1547C57.5051 26.2419 57.4687 27.2658 57.6897 28.1982L59.6358 27.7371C59.502 27.1726 59.5039 26.4638 59.6969 25.5825L57.7432 25.1547ZM57.6907 28.2025C57.909 29.106 58.3209 29.8905 58.9526 30.5097L60.3526 29.0814C60.0265 28.7618 59.7785 28.3277 59.6348 27.7328L57.6907 28.2025ZM58.9547 30.5118C59.5774 31.1184 60.3329 31.515 61.1949 31.7037L61.6227 29.75C61.1082 29.6374 60.6929 29.413 60.3504 29.0793L58.9547 30.5118ZM61.1949 31.7037C61.6629 31.8062 62.1338 31.8418 62.6045 31.807L62.4568 29.8124C62.1865 29.8324 61.9095 29.8128 61.6227 29.75L61.1949 31.7037ZM62.6045 31.807C63.0812 31.7717 63.5396 31.6623 63.9744 31.4761L63.1869 29.6376C62.9627 29.7336 62.7212 29.7928 62.4568 29.8124L62.6045 31.807ZM63.9766 31.4751C64.4227 31.2828 64.8231 31.0151 65.1739 30.6767L63.7857 29.237C63.6056 29.4106 63.4066 29.5429 63.1847 29.6386L63.9766 31.4751ZM65.1719 30.6787C65.5437 30.3222 65.8338 29.8959 66.0487 29.415L64.2227 28.5991C64.103 28.867 63.9558 29.0739 63.7877 29.2351L65.1719 30.6787ZM64.9218 29.9839L66.2982 30.2853L66.7261 28.3316L65.3496 28.0302L64.9218 29.9839ZM65.588 28.9263C65.3986 29.3845 65.1587 29.7578 64.8753 30.0598L66.3337 31.4284C66.7989 30.9327 67.1641 30.3488 67.4363 29.6905L65.588 28.9263ZM64.8753 30.0598C64.5816 30.3727 64.2536 30.6148 63.8886 30.7927L64.765 32.5905C65.355 32.3028 65.8788 31.9132 66.3337 31.4284L64.8753 30.0598ZM63.8936 30.7903C63.5246 30.9676 63.1271 31.0795 62.695 31.1236L62.8982 33.1133C63.5529 33.0464 64.1755 32.8737 64.7599 32.5929L63.8936 30.7903ZM62.6929 31.1239C62.2677 31.1682 61.8185 31.1423 61.3407 31.0377L60.9129 32.9914C61.5821 33.1379 62.2462 33.1813 62.9004 33.1131L62.6929 31.1239ZM61.3407 31.0377C60.5382 30.8619 59.9015 30.5197 59.3963 30.024L57.9955 31.4515C58.7926 32.2336 59.7765 32.7425 60.9129 32.9914L61.3407 31.0377ZM59.3963 30.024C58.8891 29.5263 58.5282 28.8914 58.3269 28.085L56.3865 28.5695C56.6686 29.6992 57.2005 30.6713 57.9955 31.4515L59.3963 30.024ZM58.3269 28.085C58.1301 27.2969 58.1278 26.3731 58.3648 25.2908L56.4111 24.863C56.123 26.1784 56.0999 27.4215 56.3865 28.5695L58.3269 28.085ZM58.3648 25.2908C58.6018 24.2085 58.99 23.3702 59.4982 22.7365L57.9378 21.4854C57.1976 22.4085 56.6991 23.5476 56.4111 24.863L58.3648 25.2908ZM59.4982 22.7365C60.0181 22.0881 60.6113 21.6621 61.28 21.4219L60.604 19.5396C59.5557 19.9161 58.6662 20.5769 57.9378 21.4854L59.4982 22.7365ZM61.28 21.4219C61.9461 21.1827 62.6676 21.1378 63.4701 21.3136L63.898 19.3599C62.7616 19.111 61.655 19.1622 60.604 19.5396L61.28 21.4219ZM63.4701 21.3136C63.9479 21.4182 64.3668 21.5824 64.7345 21.8004L65.7544 20.08C65.1886 19.7445 64.5672 19.5064 63.898 19.3599L63.4701 21.3136ZM64.7364 21.8015C65.1085 22.021 65.4213 22.289 65.6812 22.6065L67.2287 21.3395C66.8156 20.8349 66.3214 20.4144 65.7526 20.0788L64.7364 21.8015ZM65.6848 22.6108C65.9407 22.9199 66.1369 23.2733 66.2725 23.6791L68.1694 23.0453C67.9584 22.4135 67.6439 21.8408 67.2252 21.3352L65.6848 22.6108ZM66.2737 23.6825C66.4043 24.0687 66.4665 24.5063 66.4464 25.0056L68.4448 25.086C68.4735 24.3707 68.386 23.6858 68.1683 23.0419L66.2737 23.6825Z" fill="url(#paint3_linear_56_275)"/>
<defs>
<linearGradient id="paint0_linear_56_275" x1="44" y1="2" x2="44" y2="50" gradientUnits="userSpaceOnUse">
<stop stop-color="#1D1B20"/>
<stop offset="0.5" stop-color="#B02C28"/>
<stop offset="0.75" stop-color="#D7342C"/>
<stop offset="1" stop-color="#FF3B30"/>
</linearGradient>
<linearGradient id="paint1_linear_56_275" x1="23.8611" y1="17.1869" x2="27.9255" y2="35.7471" gradientUnits="userSpaceOnUse">
<stop stop-color="#1D1B20"/>
<stop offset="0.5" stop-color="#B02C28"/>
<stop offset="0.75" stop-color="#D7342C"/>
<stop offset="1" stop-color="#FF3B30"/>
</linearGradient>
<linearGradient id="paint2_linear_56_275" x1="44.0709" y1="15" x2="44.0709" y2="34" gradientUnits="userSpaceOnUse">
<stop stop-color="#1D1B20"/>
<stop offset="0.5" stop-color="#B02C28"/>
<stop offset="0.75" stop-color="#D7342C"/>
<stop offset="1" stop-color="#FF3B30"/>
</linearGradient>
<linearGradient id="paint3_linear_56_275" x1="64.2807" y1="17.1869" x2="60.2164" y2="35.7471" gradientUnits="userSpaceOnUse">
<stop stop-color="#1D1B20"/>
<stop offset="0.5" stop-color="#B02C28"/>
<stop offset="0.75" stop-color="#D7342C"/>
<stop offset="1" stop-color="#FF3B30"/>
</linearGradient>
</defs>
</svg>
