<svg width="35" height="30" viewBox="0 0 35 30" fill="none" xmlns="http://www.w3.org/2000/svg">
<path d="M17.5 0C17.1188 2.12916e-05 16.7528 0.127969 16.4803 0.356445L0.57251 11.5088C0.554136 11.5206 0.536092 11.5328 0.518392 11.5454L0.464274 11.5845V11.5869C0.318008 11.7037 0.201318 11.845 0.12145 12.0021C0.041583 12.1592 0.00024365 12.3287 0 12.5C0 12.8315 0.153645 13.1495 0.427136 13.3839C0.700626 13.6183 1.07156 13.75 1.45833 13.75H2.91667V27.5C2.91667 28.8813 4.22188 30 5.83333 30H29.1667C30.7781 30 32.0833 28.8813 32.0833 27.5V13.75H33.5417C33.9284 13.75 34.2994 13.6183 34.5729 13.3839C34.8464 13.1495 35 12.8315 35 12.5C35.0001 12.3282 34.959 12.1583 34.8791 12.0008C34.7992 11.8433 34.6823 11.7015 34.5357 11.5845L34.5129 11.5698C34.4809 11.545 34.4477 11.5213 34.4132 11.499L32.0833 9.86572V5C32.0833 4.31 31.43 3.75 30.625 3.75H29.1667C28.3617 3.75 27.7083 4.31 27.7083 5V6.79932L18.4884 0.334473C18.2197 0.120408 17.8668 0.000981668 17.5 0ZM21.875 16.25H27.7083V26.25H21.875V16.25Z" fill="url(#paint0_linear_4_82)"/>
<defs>
<linearGradient id="paint0_linear_4_82" x1="17.5" y1="0" x2="17.5" y2="30" gradientUnits="userSpaceOnUse">
<stop stop-color="#1D1B20"/>
<stop offset="0.5" stop-color="#B02C28"/>
<stop offset="0.75" stop-color="#D7342C"/>
<stop offset="1" stop-color="#FF3B30"/>
</linearGradient>
</defs>
</svg>
