<svg width="50" height="50" viewBox="0 0 50 50" fill="none" xmlns="http://www.w3.org/2000/svg">
<path d="M14.5833 18.75V14.5833H43.75V18.75H14.5833ZM14.5833 27.0833V22.9167H43.75V27.0833H14.5833ZM14.5833 35.4167V31.25H43.75V35.4167H14.5833ZM8.33333 18.75C7.74306 18.75 7.24826 18.5504 6.84896 18.1511C6.44965 17.7517 6.25 17.257 6.25 16.6667C6.25 16.0764 6.44965 15.5816 6.84896 15.1823C7.24826 14.783 7.74306 14.5833 8.33333 14.5833C8.92361 14.5833 9.4184 14.783 9.81771 15.1823C10.217 15.5816 10.4167 16.0764 10.4167 16.6667C10.4167 17.257 10.217 17.7517 9.81771 18.1511C9.4184 18.5504 8.92361 18.75 8.33333 18.75ZM8.33333 27.0833C7.74306 27.0833 7.24826 26.8837 6.84896 26.4844C6.44965 26.0851 6.25 25.5903 6.25 25C6.25 24.4097 6.44965 23.9149 6.84896 23.5156C7.24826 23.1163 7.74306 22.9167 8.33333 22.9167C8.92361 22.9167 9.4184 23.1163 9.81771 23.5156C10.217 23.9149 10.4167 24.4097 10.4167 25C10.4167 25.5903 10.217 26.0851 9.81771 26.4844C9.4184 26.8837 8.92361 27.0833 8.33333 27.0833ZM8.33333 35.4167C7.74306 35.4167 7.24826 35.217 6.84896 34.8177C6.44965 34.4184 6.25 33.9236 6.25 33.3333C6.25 32.7431 6.44965 32.2483 6.84896 31.849C7.24826 31.4497 7.74306 31.25 8.33333 31.25C8.92361 31.25 9.4184 31.4497 9.81771 31.849C10.217 32.2483 10.4167 32.7431 10.4167 33.3333C10.4167 33.9236 10.217 34.4184 9.81771 34.8177C9.4184 35.217 8.92361 35.4167 8.33333 35.4167Z" fill="url(#paint0_linear_4_73)"/>
<defs>
<linearGradient id="paint0_linear_4_73" x1="25" y1="14.5833" x2="25" y2="35.4167" gradientUnits="userSpaceOnUse">
<stop stop-color="#1D1B20"/>
<stop offset="0.5" stop-color="#B02C28"/>
<stop offset="0.75" stop-color="#D7342C"/>
<stop offset="1" stop-color="#FF3B30"/>
</linearGradient>
</defs>
</svg>
